<?xml version="1.0" standalone="no"?>
<!DOCTYPE svg PUBLIC "-//W3C//DTD SVG 20010904//EN"
 "http://www.w3.org/TR/2001/REC-SVG-20010904/DTD/svg10.dtd">
<svg version="1.0" xmlns="http://www.w3.org/2000/svg"
 width="1024.000000pt" height="1024.000000pt" viewBox="0 0 1024.000000 1024.000000"
 preserveAspectRatio="xMidYMid meet">

<g transform="translate(0.000000,1024.000000) scale(0.100000,-0.100000)"
fill="#000000" stroke="none">
<path d="M4823 8770 c-413 -52 -794 -457 -854 -905 -14 -109 -6 -284 17 -375
20 -78 80 -210 125 -277 132 -192 349 -323 617 -374 58 -11 63 -14 57 -33 -31
-108 -99 -388 -116 -483 -11 -65 -22 -119 -24 -121 -2 -2 -32 5 -67 16 -177
55 -268 59 -268 13 0 -28 18 -38 90 -51 36 -6 104 -23 153 -37 l87 -26 0 -129
0 -128 -36 0 c-43 0 -230 -37 -255 -51 -25 -13 -34 -48 -17 -65 12 -12 27 -12
109 5 51 11 121 23 154 26 l61 7 18 -58 c93 -297 352 -521 789 -684 86 -32 87
-33 70 -53 -32 -35 -176 -138 -236 -168 -50 -26 -65 -29 -105 -23 -70 10 -194
50 -317 104 -187 81 -327 122 -431 128 -56 2 -106 0 -127 -7 -41 -14 -97 -72
-97 -102 0 -28 23 -69 57 -101 29 -27 167 -98 191 -98 10 0 12 -6 7 -17 -27
-64 -34 -96 -35 -159 0 -95 21 -161 70 -216 49 -57 105 -80 179 -77 182 9 255
4 326 -23 156 -57 331 -63 480 -14 44 14 83 26 87 26 4 0 5 -19 2 -43 -9 -68
15 -375 35 -468 11 -47 35 -127 54 -178 28 -73 31 -91 18 -87 -9 3 -137 34
-286 70 -320 78 -1289 318 -1292 320 -2 2 -14 211 -93 1646 -17 300 -35 590
-40 644 -16 157 -63 234 -160 264 -19 7 -96 21 -170 32 -74 11 -189 29 -255
40 -66 11 -419 67 -785 125 -677 106 -1356 214 -1488 236 -63 11 -81 10 -125
-4 -66 -21 -124 -69 -148 -121 -26 -58 -24 -158 11 -517 17 -167 53 -531 80
-809 28 -278 65 -660 84 -850 23 -236 39 -358 51 -388 10 -23 37 -60 61 -81
50 -44 61 -47 409 -131 121 -29 222 -55 224 -56 5 -4 -100 -517 -108 -526 -3
-4 -73 -28 -155 -53 -83 -26 -162 -55 -177 -66 -32 -22 -59 -85 -59 -137 0
-42 28 -93 63 -116 26 -17 297 -121 742 -283 251 -92 300 -107 367 -111 43 -2
98 1 125 7 115 29 732 225 768 244 95 52 79 190 -28 240 -18 9 -197 66 -398
128 -200 61 -368 115 -372 119 -7 6 30 345 38 358 2 1 67 -15 146 -37 79 -21
163 -44 187 -51 l42 -11 0 -52 c0 -61 25 -109 69 -131 31 -17 456 -132 1144
-310 599 -156 805 -206 849 -206 53 0 194 41 657 191 l184 60 29 -28 c27 -26
36 -28 106 -28 42 -1 103 -7 134 -13 54 -12 128 -7 178 12 21 9 100 -34 123
-65 28 -39 34 -130 42 -630 4 -244 12 -452 17 -461 11 -22 41 -23 58 -3 9 11
11 120 9 470 -2 250 -3 455 -2 455 1 0 30 -7 65 -15 35 -8 126 -19 202 -25
120 -9 176 -20 176 -35 0 -2 -28 -21 -62 -41 -90 -55 -202 -165 -234 -231 -52
-105 -27 -209 58 -244 18 -7 49 -24 68 -37 31 -21 42 -23 135 -18 145 6 260
56 440 191 168 126 259 229 286 325 9 31 33 66 78 115 78 85 140 179 172 261
l24 62 62 6 c96 10 248 53 340 96 350 164 560 476 580 860 7 140 -4 229 -62
501 -59 275 -69 364 -55 470 14 102 56 229 101 306 52 88 189 221 304 295 132
86 160 121 135 168 -57 106 -329 8 -538 -194 -178 -171 -267 -351 -294 -596
-14 -132 -4 -249 44 -488 28 -136 32 -179 32 -317 1 -180 -12 -239 -82 -385
-49 -100 -167 -221 -267 -273 -63 -32 -221 -84 -230 -75 -2 1 -8 55 -15 118
-28 273 -147 603 -323 895 -70 117 -115 181 -254 367 -57 76 -103 141 -103
146 0 5 35 30 78 55 111 64 231 157 299 231 l59 64 64 -39 c36 -21 72 -39 81
-39 22 0 41 25 37 47 -3 15 -92 86 -121 96 -7 2 4 37 31 94 23 50 49 124 59
164 9 41 20 78 24 83 4 5 41 1 84 -9 87 -19 105 -16 105 19 0 31 -34 51 -117
69 l-58 14 -6 204 c-3 112 -11 236 -18 274 -6 39 -13 84 -16 101 l-6 32 105
-5 c204 -11 407 54 586 188 171 127 287 299 341 504 30 112 37 309 16 440 -72
451 -404 824 -812 912 -104 23 -290 20 -390 -7 -239 -62 -421 -213 -537 -445
-45 -89 -84 -211 -97 -304 -5 -40 -11 -75 -14 -77 -2 -2 -37 10 -78 26 -358
148 -782 175 -1157 75 -51 -14 -97 -25 -102 -25 -5 0 -6 42 -3 93 25 411 -241
771 -635 861 -91 20 -218 27 -309 16z m265 -106 c154 -32 282 -103 388 -217
130 -139 184 -270 192 -467 4 -121 1 -145 -34 -267 -4 -16 0 -25 19 -37 23
-16 29 -15 108 13 429 153 886 129 1324 -69 76 -34 112 -34 119 3 3 12 7 63
10 112 15 246 151 497 334 619 414 274 963 85 1214 -419 123 -246 145 -553 57
-791 -70 -191 -228 -359 -425 -455 -121 -58 -218 -81 -349 -81 -115 0 -165 11
-165 37 0 35 -76 240 -136 364 -46 97 -61 137 -55 150 12 21 77 82 119 110 21
15 32 30 32 47 0 30 -19 38 -65 30 -44 -9 -143 -98 -175 -159 l-23 -44 66
-134 c78 -160 109 -244 147 -404 43 -181 61 -312 67 -505 l6 -175 -161 3
c-160 4 -294 -9 -319 -30 -18 -14 -16 -55 2 -62 9 -3 63 -1 120 5 62 7 151 9
220 4 103 -6 115 -9 115 -25 0 -33 -51 -183 -82 -241 l-29 -56 -97 37 c-118
46 -240 75 -275 66 -22 -5 -27 -12 -27 -36 0 -26 5 -30 43 -40 86 -21 263 -80
280 -92 16 -12 14 -17 -23 -60 -78 -91 -269 -217 -427 -281 -93 -38 -113 -52
-113 -77 0 -36 27 -45 88 -29 l57 14 62 -85 c263 -359 323 -450 412 -629 199
-396 262 -749 187 -1044 -43 -166 -89 -248 -213 -377 -59 -63 -74 -85 -83
-125 -15 -69 -38 -102 -136 -194 -94 -89 -244 -194 -344 -240 -112 -51 -151
-42 -85 20 44 42 46 82 3 87 -37 4 -104 -57 -120 -109 -9 -30 -16 -39 -33 -39
-51 0 -54 41 -8 112 27 41 27 65 0 82 -16 9 -25 4 -57 -32 -21 -24 -42 -56
-45 -73 -8 -37 -25 -28 -25 13 0 80 70 161 248 287 99 70 105 73 146 67 53 -8
96 7 96 33 0 27 -18 38 -75 46 -80 11 -147 48 -194 108 -47 62 -93 159 -111
236 -17 70 -8 195 17 252 35 79 173 278 221 319 63 53 153 96 242 115 40 9 79
20 87 26 22 19 15 46 -17 59 -43 18 -129 2 -241 -44 -13 -6 -9 13 18 91 91
259 109 477 38 449 -22 -8 -31 -38 -49 -152 -45 -300 -205 -606 -450 -862 -81
-85 -205 -175 -286 -210 -78 -33 -227 -65 -276 -59 -77 8 -77 20 0 92 48 44
67 68 63 80 -11 27 -38 29 -82 6 -53 -28 -87 -63 -117 -121 -27 -52 -62 -64
-92 -31 -41 45 -17 95 80 171 64 50 81 84 49 96 -41 16 -142 -47 -192 -120
-25 -37 -34 -44 -39 -32 -11 29 25 101 74 150 63 64 147 103 273 128 96 19
107 23 146 61 132 127 307 442 405 731 45 134 54 211 26 230 -29 18 -53 -19
-83 -123 -68 -242 -199 -506 -352 -713 -62 -84 -66 -87 -111 -93 -75 -10 -189
-43 -241 -70 -27 -13 -74 -47 -105 -76 -33 -30 -61 -48 -66 -43 -16 17 -71
167 -91 248 -40 166 -47 479 -18 784 12 120 7 142 -33 142 -28 0 -45 -51 -57
-169 -6 -57 -11 -109 -11 -117 0 -19 -64 -50 -156 -75 -111 -30 -259 -24 -364
16 -41 15 -104 31 -140 34 -61 6 -65 8 -68 33 -3 28 27 96 52 117 9 7 25 29
37 47 17 28 19 37 9 49 -22 26 -50 16 -103 -34 -50 -48 -54 -49 -90 -41 -58
13 -70 27 -64 78 3 32 14 53 37 77 36 37 157 105 187 105 10 0 73 -16 140 -35
67 -19 139 -35 160 -35 71 0 214 87 375 228 l57 50 60 -5 c54 -5 60 -4 71 17
19 35 -10 54 -125 85 -146 39 -273 89 -416 162 -146 75 -265 164 -344 260 -54
65 -128 199 -141 255 -6 26 -4 27 42 30 31 2 51 9 58 21 19 30 -5 51 -68 61
-67 11 -68 14 -64 133 l3 82 57 -26 c48 -21 60 -24 73 -13 30 25 13 53 -50 87
-33 18 -64 34 -69 36 -12 4 28 227 69 392 72 280 177 519 295 671 106 136 107
138 77 211 -48 118 -116 193 -174 193 -60 0 -71 -47 -19 -78 40 -24 79 -73
101 -128 l16 -42 -80 -108 c-45 -60 -109 -164 -144 -232 l-62 -124 -44 7
c-344 52 -596 257 -693 565 -20 66 -23 94 -22 235 1 191 17 265 94 420 189
383 565 594 928 519z m-3793 -1944 c105 -17 303 -49 440 -70 543 -85 1846
-292 1954 -310 122 -21 152 -34 175 -79 26 -49 35 -174 91 -1226 30 -561 60
-1095 65 -1187 13 -216 13 -321 -1 -351 -13 -28 -58 -57 -89 -57 -35 0 -1334
330 -1344 341 -1 2 19 168 45 369 38 288 46 372 38 397 -20 64 -49 76 -319
142 -138 34 -271 61 -295 61 -50 0 -95 -31 -113 -77 -6 -16 -41 -176 -77 -358
-37 -181 -68 -335 -70 -342 -6 -19 -541 121 -583 154 -71 53 -62 0 -158 998
-8 83 -44 452 -80 820 -71 720 -70 717 -20 764 31 29 94 52 126 46 14 -3 111
-19 215 -35z m7965 -910 c-8 -6 -52 -33 -97 -60 -225 -138 -384 -367 -423
-613 -18 -112 -7 -253 35 -452 71 -335 77 -376 72 -540 -4 -125 -9 -165 -31
-238 -61 -202 -182 -370 -350 -487 -113 -77 -292 -147 -425 -165 l-54 -7 7 33
c4 19 10 62 13 96 l6 62 56 11 c163 32 292 99 401 209 88 88 152 202 196 347
25 81 28 104 28 249 1 147 -2 176 -39 360 -36 180 -39 215 -40 355 0 173 16
248 79 384 84 180 284 369 472 445 53 21 121 29 94 11z m-4738 -878 c42 -11
126 -38 186 -62 l110 -43 -66 -40 -65 -40 -86 28 c-191 60 -214 70 -255 107
l-41 36 35 16 c46 20 89 20 182 -2z m109 -272 c-11 -43 -12 -120 -2 -139 11
-20 9 -21 -24 -21 -65 0 -104 65 -74 123 23 43 42 58 73 55 22 -2 30 -8 27
-18z m-2317 -52 c225 -55 260 -66 269 -85 7 -16 -3 -115 -37 -375 -26 -194
-72 -540 -102 -768 -29 -228 -58 -425 -64 -437 -6 -16 -18 -23 -36 -23 -25 0
-549 187 -606 216 -16 8 -28 23 -28 34 0 10 36 187 80 392 44 205 115 533 156
728 70 325 84 380 103 380 3 0 122 -28 265 -62z m2466 -220 c0 -24 -6 -32 -35
-44 -43 -18 -76 -18 -119 0 -30 13 -76 52 -76 65 0 3 52 7 115 7 l115 2 0 -30z
m-205 -731 c231 -58 590 -146 798 -197 l377 -92 0 -42 c0 -23 9 -59 19 -79 14
-27 16 -40 8 -43 -23 -8 -275 -86 -501 -155 -125 -38 -246 -69 -267 -69 -42 0
-337 72 -1029 251 -761 198 -914 240 -932 256 -14 13 -27 83 -15 83 1 0 36 -9
77 -21 41 -11 237 -61 435 -111 390 -98 420 -101 489 -59 65 41 80 85 84 249
3 127 6 142 20 138 10 -3 206 -52 437 -109z m2190 -414 c0 -106 29 -205 85
-292 l37 -57 -56 3 c-89 6 -213 22 -254 34 -40 11 -42 13 -52 72 -4 23 -20 53
-41 77 l-35 38 78 42 c43 23 114 70 158 105 44 36 80 65 80 65 0 0 0 -39 0
-87z m-5133 -53 c-5 -70 -4 -70 30 -103 28 -26 95 -54 338 -142 344 -124 377
-131 429 -81 34 33 42 63 67 252 9 71 17 130 18 131 3 3 695 -209 736 -225 39
-15 62 -47 58 -79 -3 -26 -10 -30 -128 -70 -69 -23 -246 -78 -395 -123 -243
-74 -276 -81 -330 -77 -41 4 -136 33 -295 90 -426 154 -773 287 -792 304 -25
22 -23 67 5 98 16 19 52 34 137 59 63 19 118 34 121 35 4 1 4 -31 1 -69z"/>
<path d="M5324 6900 c-18 -6 -55 -31 -83 -56 -38 -34 -51 -53 -51 -74 0 -48
41 -48 85 0 35 39 71 51 146 49 71 -2 88 6 89 38 0 36 -119 63 -186 43z"/>
<path d="M6734 6776 c-34 -15 -47 -37 -37 -62 5 -13 16 -15 69 -9 85 9 123 -5
178 -66 60 -66 110 -64 92 4 -9 36 -76 108 -120 128 -48 22 -137 24 -182 5z"/>
<path d="M5230 6352 c-77 -76 -80 -202 -7 -279 54 -58 118 -50 170 19 63 85
61 205 -3 270 -23 23 -37 28 -75 28 -41 0 -52 -5 -85 -38z"/>
<path d="M6670 6258 c-68 -46 -101 -170 -69 -255 15 -40 67 -91 100 -98 53
-12 125 47 149 121 27 80 -6 200 -64 235 -41 25 -76 24 -116 -3z"/>
<path d="M5763 5976 c-63 -29 -55 -94 23 -173 47 -48 54 -60 54 -95 0 -71 -40
-117 -101 -118 -30 0 -43 7 -68 35 -17 20 -31 44 -31 55 0 27 -38 52 -62 39
-54 -29 20 -176 105 -208 45 -17 90 -13 142 14 49 24 50 24 70 5 58 -54 203
-84 291 -60 85 24 167 125 134 165 -19 23 -36 18 -75 -24 -49 -53 -82 -65
-160 -59 -111 9 -175 67 -175 159 0 47 1 48 57 86 93 62 107 117 40 167 -36
26 -194 34 -244 12z"/>
</g>
</svg>
